<?xml version="1.0" encoding="utf-8"?>
<!-- Generated by IcoMoon.io -->
<!DOCTYPE svg PUBLIC "-//W3C//DTD SVG 1.1//EN" "http://www.w3.org/Graphics/SVG/1.1/DTD/svg11.dtd">
<svg version="1.1" xmlns="http://www.w3.org/2000/svg" xmlns:xlink="http://www.w3.org/1999/xlink" width="26" height="26" viewBox="0 0 26 26">
<g>
</g>
	<path d="M13.813 13h-1.625c-1.347 0-2.438 1.092-2.438 2.438s1.090 2.438 2.438 2.438h-0.813v1.625h3.25v-1.625h-0.813c1.345 0 2.438-1.092 2.438-2.438s-1.092-2.438-2.438-2.438zM22.75 6.5h-1.789c-0.752-3.708-4.030-6.5-7.961-6.5s-7.208 2.792-7.961 6.5h-1.789c-1.794 0-3.25 1.456-3.25 3.25v13c0 1.794 1.456 3.25 3.25 3.25h19.5c1.794 0 3.25-1.456 3.25-3.25v-13c0-1.794-1.456-3.25-3.25-3.25zM13 3.25c2.119 0 3.905 1.36 4.576 3.25h-9.152c0.671-1.89 2.457-3.25 4.576-3.25zM22.75 21.125c0 0.899-0.726 1.625-1.625 1.625h-16.25c-0.897 0-1.625-0.726-1.625-1.625v-9.75c0-0.899 0.728-1.625 1.625-1.625h16.25c0.899 0 1.625 0.726 1.625 1.625v9.75z" fill="#c8cbca" />
</svg>
