<?xml version="1.0" encoding="utf-8"?>
<!-- Generated by IcoMoon.io -->
<!DOCTYPE svg PUBLIC "-//W3C//DTD SVG 1.1//EN" "http://www.w3.org/Graphics/SVG/1.1/DTD/svg11.dtd">
<svg version="1.1" xmlns="http://www.w3.org/2000/svg" xmlns:xlink="http://www.w3.org/1999/xlink" width="26" height="26" viewBox="0 0 26 26">
<g>
</g>
	<path d="M18.247 13.556c0.78-1.071 1.253-2.379 1.253-3.806v-3.25c0-3.59-2.91-6.5-6.5-6.5s-6.5 2.91-6.5 6.5v3.25c0 1.427 0.473 2.735 1.253 3.806-4.565 1.009-7.753 3.289-7.753 5.944v3.25c0 1.794 1.456 3.25 3.25 3.25h19.5c1.794 0 3.25-1.456 3.25-3.25v-3.25c0-2.655-3.188-4.935-7.753-5.944zM9.75 6.5c0-1.794 1.456-3.25 3.25-3.25s3.25 1.456 3.25 3.25v3.25c0 1.794-1.456 3.25-3.25 3.25-1.794 0-3.25-1.456-3.25-3.25v-3.25zM22.75 22.75h-19.5v-3.25c0-1.794 4.366-3.25 9.75-3.25 5.382 0 9.75 1.456 9.75 3.25v3.25z" fill="#c8cbca" />
</svg>
